<?xml version="1.0" standalone="no"?>
<!DOCTYPE svg PUBLIC "-//W3C//DTD SVG 20010904//EN"
 "http://www.w3.org/TR/2001/REC-SVG-20010904/DTD/svg10.dtd">
<svg version="1.0" xmlns="http://www.w3.org/2000/svg"
 width="600.000000pt" height="600.000000pt" viewBox="0 0 600.000000 600.000000"
 preserveAspectRatio="xMidYMid meet">
<metadata>
Created by potrace 1.16, written by Peter Selinger 2001-2019
</metadata>
<g transform="translate(0.000000,600.000000) scale(0.100000,-0.100000)"
fill="#000000" stroke="none">
<path d="M3245 4201 c-6 -6 -36 -11 -67 -12 -37 -2 -59 -7 -62 -16 -3 -7 -21
-13 -41 -13 -20 0 -43 -7 -51 -15 -9 -8 -26 -15 -40 -15 -13 0 -24 -4 -24 -10
0 -5 -13 -10 -29 -10 -16 0 -31 -6 -35 -15 -3 -8 -17 -15 -31 -15 -14 0 -25
-4 -25 -10 0 -5 -11 -10 -25 -10 -14 0 -24 -5 -23 -12 2 -7 -7 -14 -20 -16
-12 -2 -20 -8 -17 -13 4 -5 -5 -13 -18 -18 -14 -6 -28 -15 -32 -21 -3 -5 -11
-8 -16 -5 -5 4 -9 -1 -9 -9 0 -9 -4 -16 -10 -16 -24 0 -230 -203 -230 -226 0
-3 -9 -15 -21 -27 -11 -12 -25 -32 -30 -45 -5 -13 -13 -20 -19 -17 -5 3 -10
-2 -11 -12 0 -10 -9 -31 -20 -48 -20 -32 -24 -39 -33 -68 -3 -10 -9 -16 -14
-13 -4 2 -9 -7 -10 -22 -1 -15 -7 -28 -12 -30 -6 -2 -10 -16 -10 -32 0 -15 -7
-33 -15 -40 -9 -7 -15 -29 -15 -51 0 -25 -5 -39 -13 -39 -8 0 -13 -13 -14 -32
-2 -81 -3 -89 -13 -83 -14 9 -14 -387 1 -402 6 -6 11 -36 11 -67 1 -39 5 -56
15 -56 9 0 13 -14 13 -44 0 -30 5 -46 15 -50 9 -3 15 -18 15 -36 0 -18 4 -29
10 -25 6 3 10 -4 10 -18 0 -14 7 -30 15 -37 8 -7 15 -23 15 -35 0 -13 7 -25
15 -29 8 -3 15 -12 15 -21 0 -8 5 -15 10 -15 6 0 10 -9 10 -19 0 -10 7 -21 15
-25 8 -3 15 -15 15 -26 0 -12 4 -19 9 -15 5 3 12 -4 16 -15 3 -11 11 -20 16
-20 5 0 9 -6 9 -14 0 -8 7 -17 16 -20 8 -3 12 -10 9 -16 -3 -5 1 -10 9 -10 9
0 16 -5 16 -11 0 -12 103 -119 115 -119 4 0 18 -11 31 -25 13 -14 26 -25 29
-25 4 0 13 -6 20 -12 29 -26 40 -34 58 -41 10 -4 16 -10 13 -15 -2 -4 5 -9 16
-9 12 -1 24 -6 27 -11 3 -5 16 -12 29 -16 12 -4 20 -11 17 -16 -3 -5 7 -10 22
-12 16 -2 27 -8 26 -14 -1 -6 12 -11 30 -12 17 0 33 -6 35 -11 2 -6 16 -11 32
-11 15 0 33 -7 40 -15 7 -8 27 -15 45 -15 19 0 35 -4 37 -10 3 -8 53 -18 106
-19 13 -1 20 -5 17 -11 -4 -7 62 -10 192 -10 132 0 193 4 183 10 -12 8 -10 10
10 11 96 6 115 9 118 18 2 6 26 11 53 11 34 0 48 4 47 13 -2 7 10 13 27 15 16
2 33 8 36 14 3 5 20 10 37 10 21 1 29 5 25 14 -3 10 3 14 21 14 14 0 26 4 26
10 0 5 11 12 25 16 14 3 25 10 25 15 0 5 9 9 20 9 11 0 20 5 20 10 0 6 8 14
17 17 17 7 49 32 85 65 10 10 20 18 23 18 4 0 22 16 42 35 20 19 40 35 45 35
4 0 8 5 8 11 0 14 25 39 39 39 6 0 11 7 11 15 0 8 7 15 16 15 8 0 12 5 9 10
-3 6 1 13 9 16 9 3 16 12 16 20 0 8 4 14 10 14 5 0 17 16 26 36 9 20 23 38 31
41 7 3 13 11 13 18 0 17 33 75 43 75 4 0 7 11 7 25 0 14 7 28 15 31 8 4 15 17
15 30 0 13 5 24 10 24 6 0 10 11 10 24 0 33 10 57 21 50 5 -3 9 15 9 41 0 32
5 47 15 51 9 4 15 11 14 18 -5 41 2 116 11 111 7 -4 10 56 10 174 0 107 -4
181 -10 183 -5 2 -10 29 -11 61 -1 39 -7 61 -16 64 -8 3 -13 22 -13 50 0 24
-4 42 -9 39 -11 -7 -21 17 -21 50 0 13 -4 24 -10 24 -5 0 -10 13 -10 30 0 18
-5 29 -12 27 -7 -1 -14 9 -16 23 -2 14 -8 28 -14 31 -5 3 -10 16 -11 27 -1 12
-6 22 -12 22 -10 0 -27 26 -41 63 -3 9 -10 17 -15 17 -5 0 -9 6 -9 14 0 8 -7
16 -15 20 -8 3 -15 10 -15 16 0 6 -11 21 -25 34 -14 13 -25 26 -25 29 0 9
-107 117 -116 117 -4 0 -17 11 -30 25 -13 14 -26 25 -29 25 -6 0 -20 11 -50
38 -7 6 -19 12 -25 12 -6 0 -13 7 -16 15 -4 8 -14 15 -24 15 -10 0 -20 7 -24
15 -3 8 -15 15 -26 15 -11 0 -20 4 -20 9 0 5 -10 11 -22 13 -13 2 -22 9 -20
16 1 8 -11 12 -33 12 -19 0 -35 5 -35 10 0 6 -10 10 -23 10 -13 0 -32 7 -43
15 -10 8 -31 15 -46 15 -35 0 -59 10 -52 21 3 5 -22 9 -55 9 -34 0 -61 4 -61
10 0 13 -362 14 -375 1z m275 -442 c25 -5 63 -12 85 -15 22 -3 54 -12 72 -20
17 -8 38 -14 47 -14 9 0 16 -4 16 -10 0 -5 6 -10 14 -10 17 0 80 -32 84 -42 2
-5 8 -8 14 -8 37 0 258 -222 258 -259 0 -6 5 -11 10 -11 6 0 10 -8 10 -19 0
-10 7 -24 15 -31 9 -7 15 -29 15 -54 0 -34 -4 -43 -25 -53 -21 -9 -29 -8 -50
9 -14 11 -25 28 -25 38 0 9 -7 23 -15 30 -8 7 -15 19 -15 26 0 8 -4 14 -10 14
-5 0 -10 5 -10 11 0 31 -168 199 -199 199 -6 0 -11 4 -11 9 0 5 -8 11 -17 15
-10 3 -25 10 -33 15 -27 17 -88 41 -103 41 -9 0 -18 4 -21 9 -7 10 -112 24
-191 24 -78 1 -194 -14 -201 -24 -3 -5 -12 -9 -21 -9 -15 0 -76 -24 -103 -41
-8 -5 -23 -12 -32 -15 -10 -4 -18 -10 -18 -15 0 -5 -5 -9 -11 -9 -19 0 -112
-80 -157 -136 -23 -28 -42 -56 -42 -63 0 -6 -4 -11 -9 -11 -5 0 -11 -8 -15
-17 -3 -10 -9 -25 -14 -33 -21 -35 -32 -60 -32 -71 0 -6 -6 -25 -14 -42 -39
-87 -38 -300 1 -417 20 -58 64 -151 80 -168 7 -7 13 -17 13 -22 0 -16 120
-139 158 -162 21 -12 39 -25 42 -28 8 -10 111 -57 160 -73 50 -17 142 -30 210
-30 68 0 160 13 210 30 47 16 151 63 160 73 3 3 23 17 45 31 51 34 110 93 144
144 14 22 28 42 32 45 3 3 8 12 12 20 4 8 11 22 16 30 17 27 41 88 41 102 0 8
4 18 9 23 5 6 11 33 13 60 3 28 8 58 12 68 8 16 -5 17 -224 15 l-232 -3 1
-116 c1 -64 -1 -128 -4 -142 -9 -33 -48 -44 -82 -22 -24 16 -24 18 -22 148 l1
132 -131 3 -131 3 0 -135 c0 -132 -1 -136 -24 -151 -31 -20 -72 -11 -80 18 -7
28 -8 605 0 632 9 34 44 44 77 22 l27 -18 0 -135 0 -135 131 3 131 3 -1 131
-2 132 28 19 c22 15 33 17 50 9 30 -14 34 -39 32 -175 l-1 -116 271 -3 271 -2
15 -24 c13 -19 14 -34 4 -92 -6 -38 -13 -87 -16 -109 -3 -22 -9 -44 -14 -50
-5 -5 -9 -16 -9 -25 0 -8 -7 -28 -15 -44 -8 -15 -15 -34 -15 -41 0 -7 -7 -18
-15 -25 -8 -7 -15 -21 -15 -31 0 -11 -4 -19 -10 -19 -5 0 -10 -5 -10 -11 0
-31 -173 -211 -234 -244 -20 -11 -36 -23 -36 -27 0 -5 -8 -8 -19 -8 -10 0 -24
-7 -31 -15 -7 -8 -21 -15 -31 -15 -10 0 -21 -4 -24 -10 -3 -5 -13 -10 -22 -10
-8 0 -29 -6 -46 -14 -46 -21 -106 -28 -237 -29 -125 -1 -187 7 -237 29 -17 8
-38 14 -46 14 -9 0 -19 4 -22 10 -3 6 -14 10 -24 10 -10 0 -24 7 -31 15 -7 8
-21 15 -31 15 -11 0 -19 3 -19 8 0 4 -17 16 -37 27 -48 26 -192 170 -218 218
-11 20 -23 37 -27 37 -5 0 -8 8 -8 19 0 10 -7 24 -15 31 -8 7 -15 21 -15 31 0
10 -4 21 -10 24 -5 3 -10 13 -10 22 0 8 -6 29 -14 46 -22 49 -29 101 -29 237
-1 134 7 197 29 247 8 17 14 38 14 47 0 9 5 16 10 16 6 0 10 8 10 19 0 10 7
24 15 31 8 7 15 21 15 31 0 11 5 19 10 19 6 0 10 5 10 11 0 37 221 259 258
259 6 0 12 3 14 8 5 13 139 72 162 72 9 0 16 4 16 9 0 5 21 11 48 15 26 3 67
10 92 15 62 12 126 12 180 0z"/>
</g>
</svg>
