<?xml version="1.0" standalone="no"?>
<!DOCTYPE svg PUBLIC "-//W3C//DTD SVG 20010904//EN"
 "http://www.w3.org/TR/2001/REC-SVG-20010904/DTD/svg10.dtd">
<svg version="1.0" xmlns="http://www.w3.org/2000/svg"
 width="600.000000pt" height="600.000000pt" viewBox="0 0 600.000000 600.000000"
 preserveAspectRatio="xMidYMid meet">
<metadata>
Created by potrace 1.16, written by Peter Selinger 2001-2019
</metadata>
<g transform="translate(0.000000,600.000000) scale(0.100000,-0.100000)"
fill="#0dba86" stroke="none">
<path d="M1730 4985 c-243 -38 -468 -155 -647 -334 -246 -245 -365 -530 -365
-876 0 -270 75 -508 228 -723 l45 -62 461 2 461 3 164 395 c91 217 174 405
186 418 52 56 155 51 200 -11 13 -18 138 -286 277 -597 139 -311 256 -572 260
-579 5 -10 83 136 233 436 248 495 253 503 334 503 85 0 92 -9 239 -302 l134
-268 535 0 534 0 45 63 c153 214 228 452 228 722 0 347 -119 632 -367 879
-397 396 -1013 459 -1482 151 -61 -41 -141 -111 -261 -230 l-172 -172 -173
172 c-121 121 -198 189 -260 230 -246 162 -544 226 -837 180z"/>
<path d="M2353 3343 c-4 -11 -64 -156 -133 -321 l-125 -301 -423 -3 -422 -3
816 -835 c449 -459 833 -845 853 -857 47 -30 106 -30 158 0 23 12 386 375 857
857 l816 835 -487 3 -488 2 -98 195 c-53 107 -100 195 -105 195 -4 0 -108
-203 -232 -451 -226 -453 -249 -491 -306 -505 -39 -10 -95 6 -123 34 -16 17
-125 246 -280 592 -140 311 -258 569 -262 574 -5 5 -12 1 -16 -11z"/>
</g>
</svg>
